<mxfile host="app.diagrams.net" modified="2023-05-20T14:53:06.021Z" agent="Mozilla/5.0 (Windows NT 10.0; Win64; x64) AppleWebKit/537.36 (KHTML, like Gecko) Chrome/113.0.0.0 Safari/537.36" etag="ZLl3QtSRJGIWpTFcjytd" version="21.3.2" type="github">
  <diagram id="C5RBs43oDa-KdzZeNtuy" name="Page-1">
    <mxGraphModel dx="1475" dy="627" grid="1" gridSize="10" guides="1" tooltips="1" connect="1" arrows="1" fold="1" page="1" pageScale="1" pageWidth="827" pageHeight="1169" math="0" shadow="0">
      <root>
        <mxCell id="WIyWlLk6GJQsqaUBKTNV-0" />
        <mxCell id="WIyWlLk6GJQsqaUBKTNV-1" parent="WIyWlLk6GJQsqaUBKTNV-0" />
        <mxCell id="XAlXWYo5cqkaQIILTiU4-0" value="Funcionario" style="swimlane;fontStyle=1;align=center;verticalAlign=top;childLayout=stackLayout;horizontal=1;startSize=26;horizontalStack=0;resizeParent=1;resizeParentMax=0;resizeLast=0;collapsible=1;marginBottom=0;whiteSpace=wrap;html=1;" vertex="1" parent="WIyWlLk6GJQsqaUBKTNV-1">
          <mxGeometry x="24" y="570" width="210" height="180" as="geometry" />
        </mxCell>
        <mxCell id="XAlXWYo5cqkaQIILTiU4-1" value="+ nome: string&lt;br&gt;+ email: string&lt;br&gt;+ telefone: string&lt;br&gt;+ CPF: string" style="text;strokeColor=none;fillColor=none;align=left;verticalAlign=top;spacingLeft=4;spacingRight=4;overflow=hidden;rotatable=0;points=[[0,0.5],[1,0.5]];portConstraint=eastwest;whiteSpace=wrap;html=1;" vertex="1" parent="XAlXWYo5cqkaQIILTiU4-0">
          <mxGeometry y="26" width="210" height="74" as="geometry" />
        </mxCell>
        <mxCell id="XAlXWYo5cqkaQIILTiU4-2" value="" style="line;strokeWidth=1;fillColor=none;align=left;verticalAlign=middle;spacingTop=-1;spacingLeft=3;spacingRight=3;rotatable=0;labelPosition=right;points=[];portConstraint=eastwest;strokeColor=inherit;" vertex="1" parent="XAlXWYo5cqkaQIILTiU4-0">
          <mxGeometry y="100" width="210" height="8" as="geometry" />
        </mxCell>
        <mxCell id="XAlXWYo5cqkaQIILTiU4-3" value="- cadastrar_livro(string[]): string&lt;br&gt;- cadastrar_cliente(string[]): string&lt;br&gt;- gera_relatorios_reserva(void): void" style="text;strokeColor=none;fillColor=none;align=left;verticalAlign=top;spacingLeft=4;spacingRight=4;overflow=hidden;rotatable=0;points=[[0,0.5],[1,0.5]];portConstraint=eastwest;whiteSpace=wrap;html=1;" vertex="1" parent="XAlXWYo5cqkaQIILTiU4-0">
          <mxGeometry y="108" width="210" height="72" as="geometry" />
        </mxCell>
        <mxCell id="XAlXWYo5cqkaQIILTiU4-4" style="edgeStyle=orthogonalEdgeStyle;rounded=0;orthogonalLoop=1;jettySize=auto;html=1;exitX=1;exitY=0.5;exitDx=0;exitDy=0;" edge="1" parent="WIyWlLk6GJQsqaUBKTNV-1" source="XAlXWYo5cqkaQIILTiU4-7">
          <mxGeometry relative="1" as="geometry">
            <mxPoint x="584" y="640" as="targetPoint" />
          </mxGeometry>
        </mxCell>
        <mxCell id="XAlXWYo5cqkaQIILTiU4-5" style="edgeStyle=orthogonalEdgeStyle;rounded=0;orthogonalLoop=1;jettySize=auto;html=1;exitX=0;exitY=0.5;exitDx=0;exitDy=0;" edge="1" parent="WIyWlLk6GJQsqaUBKTNV-1" source="XAlXWYo5cqkaQIILTiU4-7">
          <mxGeometry relative="1" as="geometry">
            <mxPoint x="244" y="640" as="targetPoint" />
          </mxGeometry>
        </mxCell>
        <mxCell id="XAlXWYo5cqkaQIILTiU4-6" style="edgeStyle=orthogonalEdgeStyle;rounded=0;orthogonalLoop=1;jettySize=auto;html=1;exitX=0.5;exitY=1;exitDx=0;exitDy=0;" edge="1" parent="WIyWlLk6GJQsqaUBKTNV-1" source="XAlXWYo5cqkaQIILTiU4-7">
          <mxGeometry relative="1" as="geometry">
            <mxPoint x="414" y="810" as="targetPoint" />
          </mxGeometry>
        </mxCell>
        <mxCell id="XAlXWYo5cqkaQIILTiU4-23" style="edgeStyle=orthogonalEdgeStyle;rounded=0;orthogonalLoop=1;jettySize=auto;html=1;exitX=0.5;exitY=0;exitDx=0;exitDy=0;" edge="1" parent="WIyWlLk6GJQsqaUBKTNV-1" source="XAlXWYo5cqkaQIILTiU4-7">
          <mxGeometry relative="1" as="geometry">
            <mxPoint x="414" y="490" as="targetPoint" />
          </mxGeometry>
        </mxCell>
        <mxCell id="XAlXWYo5cqkaQIILTiU4-7" value="" style="rhombus;whiteSpace=wrap;html=1;" vertex="1" parent="WIyWlLk6GJQsqaUBKTNV-1">
          <mxGeometry x="374" y="600" width="80" height="80" as="geometry" />
        </mxCell>
        <mxCell id="XAlXWYo5cqkaQIILTiU4-8" value="1..*" style="text;html=1;strokeColor=none;fillColor=none;align=center;verticalAlign=middle;whiteSpace=wrap;rounded=0;" vertex="1" parent="WIyWlLk6GJQsqaUBKTNV-1">
          <mxGeometry x="244" y="600" width="60" height="30" as="geometry" />
        </mxCell>
        <mxCell id="XAlXWYo5cqkaQIILTiU4-9" value="1..*" style="text;html=1;strokeColor=none;fillColor=none;align=center;verticalAlign=middle;whiteSpace=wrap;rounded=0;" vertex="1" parent="WIyWlLk6GJQsqaUBKTNV-1">
          <mxGeometry x="524" y="600" width="60" height="30" as="geometry" />
        </mxCell>
        <mxCell id="XAlXWYo5cqkaQIILTiU4-10" value="Cliente" style="swimlane;fontStyle=1;align=center;verticalAlign=top;childLayout=stackLayout;horizontal=1;startSize=26;horizontalStack=0;resizeParent=1;resizeParentMax=0;resizeLast=0;collapsible=1;marginBottom=0;whiteSpace=wrap;html=1;" vertex="1" parent="WIyWlLk6GJQsqaUBKTNV-1">
          <mxGeometry x="309" y="820" width="210" height="180" as="geometry" />
        </mxCell>
        <mxCell id="XAlXWYo5cqkaQIILTiU4-11" value="+ nome: string&lt;br&gt;+ email: string&lt;br&gt;+ telefone: string&lt;br&gt;+ CPF: string" style="text;strokeColor=none;fillColor=none;align=left;verticalAlign=top;spacingLeft=4;spacingRight=4;overflow=hidden;rotatable=0;points=[[0,0.5],[1,0.5]];portConstraint=eastwest;whiteSpace=wrap;html=1;" vertex="1" parent="XAlXWYo5cqkaQIILTiU4-10">
          <mxGeometry y="26" width="210" height="74" as="geometry" />
        </mxCell>
        <mxCell id="XAlXWYo5cqkaQIILTiU4-12" value="" style="line;strokeWidth=1;fillColor=none;align=left;verticalAlign=middle;spacingTop=-1;spacingLeft=3;spacingRight=3;rotatable=0;labelPosition=right;points=[];portConstraint=eastwest;strokeColor=inherit;" vertex="1" parent="XAlXWYo5cqkaQIILTiU4-10">
          <mxGeometry y="100" width="210" height="8" as="geometry" />
        </mxCell>
        <mxCell id="XAlXWYo5cqkaQIILTiU4-13" value="- acessar_conta(void): void&lt;br&gt;- solicitar_reserva(string[]): string" style="text;strokeColor=none;fillColor=none;align=left;verticalAlign=top;spacingLeft=4;spacingRight=4;overflow=hidden;rotatable=0;points=[[0,0.5],[1,0.5]];portConstraint=eastwest;whiteSpace=wrap;html=1;" vertex="1" parent="XAlXWYo5cqkaQIILTiU4-10">
          <mxGeometry y="108" width="210" height="72" as="geometry" />
        </mxCell>
        <mxCell id="XAlXWYo5cqkaQIILTiU4-14" value="1..*" style="text;html=1;strokeColor=none;fillColor=none;align=center;verticalAlign=middle;whiteSpace=wrap;rounded=0;" vertex="1" parent="WIyWlLk6GJQsqaUBKTNV-1">
          <mxGeometry x="414" y="780" width="60" height="30" as="geometry" />
        </mxCell>
        <mxCell id="XAlXWYo5cqkaQIILTiU4-15" value="Cliente" style="swimlane;fontStyle=1;align=center;verticalAlign=top;childLayout=stackLayout;horizontal=1;startSize=26;horizontalStack=0;resizeParent=1;resizeParentMax=0;resizeLast=0;collapsible=1;marginBottom=0;whiteSpace=wrap;html=1;" vertex="1" parent="WIyWlLk6GJQsqaUBKTNV-1">
          <mxGeometry x="594" y="570" width="210" height="180" as="geometry" />
        </mxCell>
        <mxCell id="XAlXWYo5cqkaQIILTiU4-16" value="+ nome: string&lt;br&gt;+ sinopse: string&lt;br&gt;+ ano_publicacao: integer&lt;br&gt;+ status_reserva: boolean" style="text;strokeColor=none;fillColor=none;align=left;verticalAlign=top;spacingLeft=4;spacingRight=4;overflow=hidden;rotatable=0;points=[[0,0.5],[1,0.5]];portConstraint=eastwest;whiteSpace=wrap;html=1;" vertex="1" parent="XAlXWYo5cqkaQIILTiU4-15">
          <mxGeometry y="26" width="210" height="74" as="geometry" />
        </mxCell>
        <mxCell id="XAlXWYo5cqkaQIILTiU4-17" value="" style="line;strokeWidth=1;fillColor=none;align=left;verticalAlign=middle;spacingTop=-1;spacingLeft=3;spacingRight=3;rotatable=0;labelPosition=right;points=[];portConstraint=eastwest;strokeColor=inherit;" vertex="1" parent="XAlXWYo5cqkaQIILTiU4-15">
          <mxGeometry y="100" width="210" height="8" as="geometry" />
        </mxCell>
        <mxCell id="XAlXWYo5cqkaQIILTiU4-18" value="- reservar_livro(string[]): string&lt;br&gt;- devolver_livro(string[]): string" style="text;strokeColor=none;fillColor=none;align=left;verticalAlign=top;spacingLeft=4;spacingRight=4;overflow=hidden;rotatable=0;points=[[0,0.5],[1,0.5]];portConstraint=eastwest;whiteSpace=wrap;html=1;" vertex="1" parent="XAlXWYo5cqkaQIILTiU4-15">
          <mxGeometry y="108" width="210" height="72" as="geometry" />
        </mxCell>
        <mxCell id="XAlXWYo5cqkaQIILTiU4-19" value="Gerente" style="swimlane;fontStyle=1;align=center;verticalAlign=top;childLayout=stackLayout;horizontal=1;startSize=26;horizontalStack=0;resizeParent=1;resizeParentMax=0;resizeLast=0;collapsible=1;marginBottom=0;whiteSpace=wrap;html=1;" vertex="1" parent="WIyWlLk6GJQsqaUBKTNV-1">
          <mxGeometry x="309" y="300" width="210" height="180" as="geometry" />
        </mxCell>
        <mxCell id="XAlXWYo5cqkaQIILTiU4-20" value="+ nome: string&lt;br&gt;+ email: string&lt;br&gt;+ telefone: string&lt;br&gt;+ CPF: string" style="text;strokeColor=none;fillColor=none;align=left;verticalAlign=top;spacingLeft=4;spacingRight=4;overflow=hidden;rotatable=0;points=[[0,0.5],[1,0.5]];portConstraint=eastwest;whiteSpace=wrap;html=1;" vertex="1" parent="XAlXWYo5cqkaQIILTiU4-19">
          <mxGeometry y="26" width="210" height="74" as="geometry" />
        </mxCell>
        <mxCell id="XAlXWYo5cqkaQIILTiU4-21" value="" style="line;strokeWidth=1;fillColor=none;align=left;verticalAlign=middle;spacingTop=-1;spacingLeft=3;spacingRight=3;rotatable=0;labelPosition=right;points=[];portConstraint=eastwest;strokeColor=inherit;" vertex="1" parent="XAlXWYo5cqkaQIILTiU4-19">
          <mxGeometry y="100" width="210" height="8" as="geometry" />
        </mxCell>
        <mxCell id="XAlXWYo5cqkaQIILTiU4-22" value="- gerar_relatorio_usuarios(void): void&lt;br&gt;- gerar_relatorio_reserva(void): void" style="text;strokeColor=none;fillColor=none;align=left;verticalAlign=top;spacingLeft=4;spacingRight=4;overflow=hidden;rotatable=0;points=[[0,0.5],[1,0.5]];portConstraint=eastwest;whiteSpace=wrap;html=1;" vertex="1" parent="XAlXWYo5cqkaQIILTiU4-19">
          <mxGeometry y="108" width="210" height="72" as="geometry" />
        </mxCell>
        <mxCell id="XAlXWYo5cqkaQIILTiU4-24" value="1..*" style="text;html=1;strokeColor=none;fillColor=none;align=center;verticalAlign=middle;whiteSpace=wrap;rounded=0;" vertex="1" parent="WIyWlLk6GJQsqaUBKTNV-1">
          <mxGeometry x="414" y="490" width="60" height="30" as="geometry" />
        </mxCell>
      </root>
    </mxGraphModel>
  </diagram>
</mxfile>
